<svg xmlns="http://www.w3.org/2000/svg" width="23" height="23" fill="none"><path stroke="#b180df" stroke-linecap="round" stroke-linejoin="round" stroke-width="2" d="M10 3.12131H3c-.53043 0-1.03914.21071-1.41421.58578C1.21071 4.08217 1 4.59087 1 5.12131V19.1213c0 .5304.21071 1.0391.58579 1.4142.37507.3751.88378.5858 1.41421.5858h14c.5304 0 1.0391-.2107 1.4142-.5858S19 19.6517 19 19.1213v-7" opacity=".6"/><path stroke="#b180df" stroke-linecap="round" stroke-linejoin="round" stroke-width="2" d="M17.5 1.62132C17.8978 1.2235 18.4374 1 19 1s1.1022.2235 1.5.62132c.3978.39783.6213.93739.6213 1.5s-.2235 1.10218-.6213 1.5L11 14.1213l-4 1 1-4 9.5-9.49998Z"/></svg>