<svg xmlns="http://www.w3.org/2000/svg" width="20" height="22" fill="none"><path stroke="#FC5050" stroke-linecap="round" stroke-linejoin="round" stroke-width="2" d="M1 5h18" opacity=".6"/><path fill="#FC5050" fill-rule="evenodd" d="M7.29289 2.29289C7.48043 2.10536 7.73478 2 8 2h4c.2652 0 .5196.10536.7071.29289C12.8946 2.48043 13 2.73478 13 3v1h2V3c0-.79565-.3161-1.55871-.8787-2.12132C13.5587.31607 12.7956 0 12 0H8c-.79565 0-1.55871.31607-2.12132.87868C5.31607 1.44129 5 2.20435 5 3v1h2V3c0-.26522.10536-.51957.29289-.70711ZM18 6h-2v13c0 .2652-.1054.5196-.2929.7071S15.2652 20 15 20H5c-.26522 0-.51957-.1054-.70711-.2929C4.10536 19.5196 4 19.2652 4 19V6H2v13c0 .7957.31607 1.5587.87868 2.1213C3.44129 21.6839 4.20435 22 5 22h10c.7957 0 1.5587-.3161 2.1213-.8787C17.6839 20.5587 18 19.7957 18 19V6Z" clip-rule="evenodd"/></svg>